# xmcd CD database file
#
# Track frame offsets:
#	150
#	40040
#	82251
#	145743
#	207933
#	251551
#
# Disc length: 4176 seconds
#
# Revision: 0
# Processed by: cddbd v1.5PL3 Copyright (c) Steve Scherf et al.
# Submitted via: CDex 1.51
#
DISCID=4f104e06
DTITLE=Kidd Jordan - Kidd' stuff
DYEAR=1999
DGENRE=Jazz
TTITLE0=James Brown #1
TTITLE1=Fanning the files
TTITLE2=Sidewalk games
TTITLE3=River niger
TTITLE4=Point of you
TTITLE5=New York Mississippi
EXTD=YEAR: 1999
EXTT0=
EXTT1=
EXTT2=
EXTT3=
EXTT4=
EXTT5=
PLAYORDER=
